<svg width="342" height="95" viewBox="0 0 342 95" fill="none" xmlns="http://www.w3.org/2000/svg">
<path d="M63.9628 15.09C63.9628 15.09 65.6228 5.98 53.8028 0C53.8028 0.43 57.1328 6.1 56.5128 7.2C55.8928 7.02 33.9528 -7.66 14.6328 9.29C16.0928 8.8 39.9928 -1.55 53.3428 12.42C53.5528 12.56 63.9728 15.08 63.9728 15.08L63.9628 15.09Z" fill="white"/>
<path d="M24.7823 10.5298C24.7823 10.5298 9.91227 18.9598 6.06227 30.3598C6.74227 30.0498 12.4423 26.5198 17.4623 26.8298C17.2723 27.1998 1.11227 51.8498 21.4223 72.3798C20.3423 72.3298 -0.957729 69.6298 8.60227 33.0798C8.60227 33.0798 0.712271 38.1098 0.0422707 40.9998C-0.137729 40.7498 -0.81773 14.8298 24.7823 10.5398V10.5298Z" fill="white"/>
<path d="M23.372 46.8799C23.372 46.8799 26.512 67.0699 35.922 70.7299C36.992 71.1499 38.042 71.5999 39.032 72.1799C43.592 74.8699 53.212 82.3299 47.212 94.8799C46.922 94.4399 48.112 83.5899 34.132 77.3599C32.222 76.5099 30.422 75.4199 28.872 74.0099C24.522 70.0899 18.442 61.5999 23.382 46.8799H23.372Z" fill="white"/>
<path d="M44.882 41.6601C44.882 41.6601 43.102 45.5501 46.742 50.3301C47.902 51.8601 48.502 53.7401 48.522 55.6701C48.552 58.6801 48.092 62.8701 45.872 65.6901C45.582 65.7901 38.952 51.5001 29.512 47.2001C27.992 46.5101 26.552 45.6201 25.342 44.4601C22.212 41.4401 18.202 35.1901 20.742 24.0401C20.742 24.0401 22.942 39.4601 28.652 41.1601C28.652 40.2601 22.642 27.9501 39.662 22.1401C39.562 22.1401 39.462 24.0401 39.462 24.0401C39.462 24.0401 26.952 29.4501 31.952 38.7601C32.252 39.0601 40.962 51.1701 42.362 51.1701C42.662 50.8701 41.462 42.4601 44.862 41.6601H44.882Z" fill="white"/>
<path d="M72.6936 76.7098C72.6936 76.7098 75.4736 63.6998 64.9936 55.8498C64.9936 55.8498 49.7336 44.4598 48.9436 43.7898C49.2036 43.9998 40.6936 37.5098 43.0436 28.8898C43.1936 28.1898 44.8536 21.3098 54.0336 19.4498C54.0336 19.4498 51.7436 18.1498 49.6336 18.5098C50.0236 18.3498 53.4636 16.8498 59.8736 18.2698C59.8736 18.2698 59.6836 17.2198 59.0436 17.0898C58.4036 16.9598 65.8536 17.1298 68.3636 20.4498C68.1436 20.4798 65.6336 19.7498 64.7436 19.8998C64.9836 20.1698 66.3436 21.8498 75.2136 26.0298C75.5736 26.2198 80.2036 28.1398 81.2036 29.7698L80.9836 30.1298C80.9836 30.1298 78.0636 29.0498 76.7536 30.5698C76.0736 31.1498 74.9036 31.8698 76.3536 32.7798C76.3536 32.7798 79.8036 33.4098 79.3936 34.7198C79.3936 34.7698 79.8236 41.5198 71.3336 40.1998C71.0036 40.1798 66.2736 39.2898 66.8436 43.7298L67.4936 42.8998C67.4936 42.8998 70.0436 45.5798 73.6336 43.0998C73.6736 43.0698 77.2236 39.5398 78.5036 40.7798C78.5936 40.8498 80.7836 42.5898 78.9636 47.7198L78.2936 46.2598C78.2936 46.2598 75.5736 49.1998 70.0836 47.2198C69.9436 47.1798 63.8836 45.7598 65.9336 39.4798C65.9736 39.3698 67.5036 36.7798 67.5036 36.7798C67.5036 36.7798 66.6836 37.0298 66.2436 37.5098C66.1036 37.5998 65.2036 38.5298 60.3936 36.3998C55.5836 34.2698 49.5536 30.3498 53.5936 23.4398C53.5936 23.4398 45.6436 26.5698 51.8236 36.9398C51.9636 37.1298 56.1336 41.7598 59.5136 43.4698C59.9536 43.7798 74.3736 52.9898 74.6536 62.3698C74.7136 62.7498 76.1936 69.7098 72.6836 76.7198L72.6936 76.7098Z" fill="white"/>
<path d="M59.3945 27.9298C59.3945 27.9298 62.3845 24.9598 64.2045 24.7998L65.1945 25.1998C65.1945 25.1998 64.1645 26.7198 68.5745 29.5398C68.5745 29.5398 67.5545 29.6698 65.2445 28.4398C65.1845 28.4298 60.7545 28.6798 59.3945 27.9298Z" fill="#231F20"/>
<path d="M113.364 72.6C111.404 72.6 109.644 72.2 108.084 71.4C106.564 70.6 105.364 69.5 104.484 68.1C103.644 66.66 103.224 65.04 103.224 63.24C103.224 60.2 104.384 57.88 106.704 56.28C109.024 54.64 112.324 53.82 116.604 53.82H122.244V52.32C122.244 50.32 121.704 48.78 120.624 47.7C119.544 46.62 117.964 46.08 115.884 46.08C114.084 46.08 112.404 46.44 110.844 47.16C109.284 47.84 108.004 48.84 107.004 50.16L104.184 46.62C105.624 44.94 107.364 43.66 109.404 42.78C111.484 41.86 113.724 41.4 116.124 41.4C119.964 41.4 122.944 42.34 125.064 44.22C127.184 46.06 128.244 48.68 128.244 52.08V66C128.244 67.8 128.484 69.8 128.964 72H123.744C123.344 71.04 123.064 69.7 122.904 67.98H122.784C120.504 71.06 117.364 72.6 113.364 72.6ZM114.504 67.98C116.664 67.98 118.484 67.4 119.964 66.24C121.484 65.04 122.244 63.6 122.244 61.92V57.96H116.364C114.004 57.96 112.184 58.42 110.904 59.34C109.664 60.22 109.044 61.52 109.044 63.24C109.044 64.72 109.524 65.88 110.484 66.72C111.484 67.56 112.824 67.98 114.504 67.98ZM144.477 72.6C142.517 72.6 140.757 72.2 139.197 71.4C137.677 70.6 136.477 69.5 135.597 68.1C134.757 66.66 134.337 65.04 134.337 63.24C134.337 60.2 135.497 57.88 137.817 56.28C140.137 54.64 143.437 53.82 147.717 53.82H153.357V52.32C153.357 50.32 152.817 48.78 151.737 47.7C150.657 46.62 149.077 46.08 146.997 46.08C145.197 46.08 143.517 46.44 141.957 47.16C140.397 47.84 139.117 48.84 138.117 50.16L135.297 46.62C136.737 44.94 138.477 43.66 140.517 42.78C142.597 41.86 144.837 41.4 147.237 41.4C151.077 41.4 154.057 42.34 156.177 44.22C158.297 46.06 159.357 48.68 159.357 52.08V66C159.357 67.8 159.597 69.8 160.077 72H154.857C154.457 71.04 154.177 69.7 154.017 67.98H153.897C151.617 71.06 148.477 72.6 144.477 72.6ZM145.617 67.98C147.777 67.98 149.597 67.4 151.077 66.24C152.597 65.04 153.357 63.6 153.357 61.92V57.96H147.477C145.117 57.96 143.297 58.42 142.017 59.34C140.777 60.22 140.157 61.52 140.157 63.24C140.157 64.72 140.637 65.88 141.597 66.72C142.597 67.56 143.937 67.98 145.617 67.98ZM189.885 72.6C187.525 72.6 185.405 72.12 183.525 71.16C181.645 70.2 180.325 68.92 179.565 67.32L183.345 64.74C184.025 65.78 184.945 66.6 186.105 67.2C187.265 67.8 188.525 68.1 189.885 68.1C191.445 68.1 192.725 67.66 193.725 66.78C194.765 65.9 195.285 64.78 195.285 63.42C195.285 62.34 194.885 61.46 194.085 60.78C193.285 60.06 191.805 59.3 189.645 58.5C186.165 57.18 183.705 55.84 182.265 54.48C180.865 53.08 180.165 51.36 180.165 49.32C180.165 46.92 181.105 45 182.985 43.56C184.905 42.12 187.445 41.4 190.605 41.4C192.645 41.4 194.505 41.82 196.185 42.66C197.865 43.5 199.185 44.68 200.145 46.2L196.605 48.84C195.925 47.88 195.065 47.16 194.025 46.68C193.025 46.16 191.905 45.9 190.665 45.9C189.305 45.9 188.185 46.2 187.305 46.8C186.465 47.4 186.045 48.18 186.045 49.14C186.045 50.14 186.485 50.98 187.365 51.66C188.245 52.3 189.965 53.12 192.525 54.12C195.725 55.36 197.965 56.66 199.245 58.02C200.565 59.34 201.225 61.06 201.225 63.18C201.225 66.02 200.185 68.3 198.105 70.02C196.025 71.74 193.285 72.6 189.885 72.6ZM218.074 72.6C215.274 72.6 213.074 71.76 211.474 70.08C209.914 68.36 209.134 66 209.134 63V46.56H203.734V42H209.134V34.08L214.834 32.4H215.074V42H223.654V46.56H215.074V62.28C215.074 64.24 215.454 65.68 216.214 66.6C217.014 67.52 218.214 67.98 219.814 67.98C221.414 67.98 222.834 67.74 224.074 67.26L224.434 71.52C222.954 72.24 220.834 72.6 218.074 72.6ZM240.432 72.6C236.992 72.6 234.372 71.48 232.572 69.24C230.812 66.96 229.932 63.62 229.932 59.22V42H235.872V59.28C235.872 62.16 236.372 64.3 237.372 65.7C238.372 67.1 239.892 67.8 241.932 67.8C244.332 67.8 246.312 66.9 247.872 65.1C249.472 63.3 250.272 61.02 250.272 58.26V42H256.212V65.22C256.212 67.38 256.392 69.64 256.752 72H251.172C250.852 70.28 250.672 68.5 250.632 66.66H250.452C249.652 68.5 248.332 69.96 246.492 71.04C244.692 72.08 242.672 72.6 240.432 72.6ZM274.313 72.6C270.393 72.6 267.313 71.16 265.073 68.28C262.833 65.4 261.713 61.46 261.713 56.46C261.713 53.42 262.233 50.78 263.273 48.54C264.313 46.26 265.793 44.5 267.713 43.26C269.633 42.02 271.873 41.4 274.433 41.4C278.033 41.4 280.913 42.84 283.073 45.72H283.193V27.48H289.133V64.32C289.133 68.16 289.193 70.72 289.313 72H283.793C283.713 71.12 283.673 69.62 283.673 67.5H283.553C282.633 69.02 281.333 70.26 279.653 71.22C277.973 72.14 276.193 72.6 274.313 72.6ZM275.273 67.92C277.673 67.92 279.593 67.22 281.033 65.82C282.473 64.38 283.193 62.44 283.193 60V54.3C283.193 51.82 282.453 49.8 280.973 48.24C279.533 46.68 277.633 45.9 275.273 45.9C272.873 45.9 270.993 46.84 269.633 48.72C268.313 50.56 267.653 53.18 267.653 56.58C267.653 60.14 268.313 62.92 269.633 64.92C270.993 66.92 272.873 67.92 275.273 67.92ZM300.225 37.38C298.985 37.38 298.005 37.04 297.285 36.36C296.565 35.68 296.205 34.76 296.205 33.6C296.205 32.44 296.565 31.52 297.285 30.84C298.005 30.16 298.985 29.82 300.225 29.82C301.465 29.82 302.445 30.16 303.165 30.84C303.925 31.52 304.305 32.44 304.305 33.6C304.305 34.76 303.925 35.68 303.165 36.36C302.445 37.04 301.465 37.38 300.225 37.38ZM297.285 42H303.225V72H297.285V42ZM324.76 72.6C320.16 72.6 316.54 71.22 313.9 68.46C311.26 65.66 309.94 61.84 309.94 57C309.94 52.16 311.26 48.36 313.9 45.6C316.54 42.8 320.16 41.4 324.76 41.4C329.36 41.4 332.98 42.8 335.62 45.6C338.3 48.36 339.64 52.16 339.64 57C339.64 61.84 338.3 65.66 335.62 68.46C332.98 71.22 329.36 72.6 324.76 72.6ZM324.76 68.1C327.52 68.1 329.7 67.12 331.3 65.16C332.9 63.16 333.7 60.44 333.7 57C333.7 53.56 332.9 50.86 331.3 48.9C329.7 46.9 327.52 45.9 324.76 45.9C321.96 45.9 319.78 46.9 318.22 48.9C316.66 50.86 315.88 53.56 315.88 57C315.88 60.44 316.66 63.16 318.22 65.16C319.78 67.12 321.96 68.1 324.76 68.1Z" fill="white"/>
</svg>
